<svg xmlns="http://www.w3.org/2000/svg" width="1200" height="800" viewBox="0 0 1200 800" fill="none">
  <defs>
    <linearGradient id="g1" x1="0" x2="1">
      <stop offset="0" stop-color="#3A86FF"/>
      <stop offset="1" stop-color="#5CE1E6"/>
    </linearGradient>
  </defs>
  <rect width="1200" height="800" rx="24" fill="#071428" />
  <g transform="translate(120,100)">
    <rect x="0" y="0" width="960" height="600" rx="20" fill="url(#g1)" opacity="0.08" />

    <!-- Brain / chip -->
    <g transform="translate(120,60)">
      <circle cx="240" cy="160" r="140" fill="#0A1A2F" stroke="url(#g1)" stroke-width="6" />
      <path d="M160 120c30-40 90-60 160-40c70 20 110 80 110 120" stroke="#7dd3fc" stroke-width="6" fill="none" stroke-linecap="round"/>
      <path d="M180 210c20 10 60 20 120 15c65-5 100-25 120-40" stroke="#9be7ff" stroke-width="4" fill="none" stroke-linecap="round"/>

      <!-- nodes -->
      <g fill="#7dd3fc">
        <circle cx="120" cy="120" r="8" />
        <circle cx="300" cy="80" r="8" />
        <circle cx="360" cy="180" r="8" />
        <circle cx="220" cy="260" r="8" />
        <circle cx="80" cy="200" r="8" />
      </g>

      <!-- chip lines -->
      <g stroke="#9be7ff" stroke-width="3">
        <line x1="-40" y1="160" x2="80" y2="160" stroke-linecap="round" />
        <line x1="420" y1="160" x2="540" y2="160" stroke-linecap="round" />
        <line x1="240" y1="-20" x2="240" y2="-80" stroke-linecap="round" />
      </g>
    </g>

    <!-- Right panel with text-like blocks -->
    <g transform="translate(520,140)">
      <rect x="0" y="0" width="320" height="40" rx="8" fill="#0B2235" />
      <rect x="0" y="64" width="280" height="28" rx="6" fill="#0B2235" />
      <rect x="0" y="108" width="320" height="28" rx="6" fill="#0B2235" />
      <rect x="0" y="152" width="240" height="28" rx="6" fill="#0B2235" />

      <circle cx="260" cy="220" r="34" fill="#0A1A2F" stroke="url(#g1)" stroke-width="4" />
      <path d="M248 208l24 24" stroke="#7dd3fc" stroke-width="4" stroke-linecap="round" />
      <path d="M272 208l-24 24" stroke="#9be7ff" stroke-width="4" stroke-linecap="round" />
    </g>

    <!-- Footer small text -->
    <text x="20" y="560" fill="#93c5fd" font-family="Inter, sans-serif" font-size="18">MentorIA — Aplicando IA no trabalho</text>
  </g>
</svg>
